<svg id="Layer_1" data-name="Layer 1" xmlns="http://www.w3.org/2000/svg" viewBox="0 0 506.24 759.42">
  <defs>
    <style>
      .cls-1 {
        opacity: 0.95;
      }

      .cls-2 {
        fill: #4353b3;
      }

      .cls-3 {
        fill: #3344a3;
      }

      .cls-4 {
        fill: #3544b1;
      }

      .cls-5 {
        fill: #4454b3;
      }
    </style>
  </defs>
  <title>bgArtboard 6globe</title>
  <g class="cls-1">
    <g>
      <g>
        <path class="cls-2" d="M125.76,194.24S44.91,312.51,143,434.07,447.21,488,481.66,398.34C505.24,337,543.74,175.91,418,106.14S170.5,113.73,125.76,194.24Z"/>
        <path class="cls-3" d="M150.43,159.25S179,181.09,190.2,201.57s6.55,47.71-2.94,51.75-44.42,3.57-43,14.34-5.69,27.16,13.88,35.91,42.73,36,42.73,36-8,31.61-15.85,34.22-34.62-15.72-34.62-15.72-19.85,23.3-.54,36.61,14,61.08,14,61.08S5.48,326.93,150.43,159.25Z"/>
        <path class="cls-3" d="M303,119.44s-35.34,23.94-36.21,39.16L264,207.3l32.39,27.8S235.23,251.47,238.81,270,230.3,306.53,264,313.6s77.66-5.69,77.66-5.69,7.33,34-13.2,42-62.52,13.24-53.05,36.68,46.57,50,46.57,50,38.53,1.43,62.89-19.7,33.19-40.48,21-70.18-17.1-52.36-17.1-52.36,5.87-21.57,18.7-30S453,277.61,453,277.61s19.34-14.16,23.37-30.73,20.83-42.51,20.83-42.51-4-43.62-60.8-86.52c0,0-29.21,15.16-37.51,25.38s-27.3,28.62-27.3,28.62-24.36-16.3-33.08-26S331,114.93,303,119.44Z"/>
        <path class="cls-4" d="M403.17,473.07s-1.32-63.25,65.38-51.43C468.55,421.64,456.92,453.6,403.17,473.07Z"/>
      </g>
      <path class="cls-5" d="M275.35,54.28,253.87,0C199.25,20.11,46.7,43.25,4.82,260.51-29.55,438.81,129.27,553.91,183,566.79s133.19,20,133.19,20l-2.95-59.87s-101.83,5.37-158.46-35.44S67.08,393.42,53,335.7c-12.72-52.22,21.33-129,47.87-168.64C123.92,132.69,207.32,60.19,275.35,54.28Z"/>
      <polygon class="cls-5" points="261.56 526.41 222.55 759.42 393.5 759.42 343.56 526.41 261.56 526.41"/>
    </g>
  </g>
</svg>
